<svg id="visual" viewBox="0 0 1260 340" width="1260" height="340" xmlns="http://www.w3.org/2000/svg" xmlns:xlink="http://www.w3.org/1999/xlink" version="1.1"><g stroke-width="1" stroke-linejoin="bevel"><path d="M668.3 133.3L599.7 122.3L687.3 219.7Z" fill="#201e53" stroke="#201e53"></path><path d="M599.7 122.3L546.7 250.7L687.3 219.7Z" fill="#251c4f" stroke="#251c4f"></path><path d="M460.2 110.3L483.2 254.7L546.7 250.7Z" fill="#201e53" stroke="#201e53"></path><path d="M483.2 254.7L584.7 340L546.7 250.7Z" fill="#34163e" stroke="#34163e"></path><path d="M546.7 250.7L584.7 340L687.3 219.7Z" fill="#251c4f" stroke="#251c4f"></path><path d="M584.7 340L686.3 340L687.3 219.7Z" fill="#201e53" stroke="#201e53"></path><path d="M686.3 340L789.8 212.7L687.3 219.7Z" fill="#201e53" stroke="#201e53"></path><path d="M687.3 219.7L789.8 212.7L668.3 133.3Z" fill="#35153a" stroke="#35153a"></path><path d="M599.7 122.3L460.2 110.3L546.7 250.7Z" fill="#181f56" stroke="#181f56"></path><path d="M668.3 133.3L595.7 0L599.7 122.3Z" fill="#2d1948" stroke="#2d1948"></path><path d="M599.7 122.3L595.7 0L460.2 110.3Z" fill="#181f56" stroke="#181f56"></path><path d="M703.3 0L595.7 0L668.3 133.3Z" fill="#34163e" stroke="#34163e"></path><path d="M789.8 212.7L799.8 97.3L668.3 133.3Z" fill="#321741" stroke="#321741"></path><path d="M799.8 97.3L703.3 0L668.3 133.3Z" fill="#301844" stroke="#301844"></path><path d="M344.6 250.7L440.2 340L483.2 254.7Z" fill="#301844" stroke="#301844"></path><path d="M483.2 254.7L440.2 340L584.7 340Z" fill="#361437" stroke="#361437"></path><path d="M595.7 0L471.2 0L460.2 110.3Z" fill="#0d215a" stroke="#0d215a"></path><path d="M686.3 340L818.8 340L789.8 212.7Z" fill="#2a1a4c" stroke="#2a1a4c"></path><path d="M789.8 212.7L901.4 229.7L799.8 97.3Z" fill="#35153a" stroke="#35153a"></path><path d="M902.4 0L810.8 0L799.8 97.3Z" fill="#0d215a" stroke="#0d215a"></path><path d="M799.8 97.3L810.8 0L703.3 0Z" fill="#201e53" stroke="#201e53"></path><path d="M818.8 340L901.4 229.7L789.8 212.7Z" fill="#35153a" stroke="#35153a"></path><path d="M322.6 0L346.6 132.3L460.2 110.3Z" fill="#251c4f" stroke="#251c4f"></path><path d="M460.2 110.3L346.6 132.3L483.2 254.7Z" fill="#321741" stroke="#321741"></path><path d="M346.6 132.3L344.6 250.7L483.2 254.7Z" fill="#251c4f" stroke="#251c4f"></path><path d="M818.8 340L902.4 340L901.4 229.7Z" fill="#201e53" stroke="#201e53"></path><path d="M1019.9 200.7L939.4 85.3L901.4 229.7Z" fill="#361437" stroke="#361437"></path><path d="M901.4 229.7L939.4 85.3L799.8 97.3Z" fill="#251c4f" stroke="#251c4f"></path><path d="M939.4 85.3L902.4 0L799.8 97.3Z" fill="#35153a" stroke="#35153a"></path><path d="M231.1 340L324.6 340L344.6 250.7Z" fill="#321741" stroke="#321741"></path><path d="M344.6 250.7L324.6 340L440.2 340Z" fill="#301844" stroke="#301844"></path><path d="M471.2 0L322.6 0L460.2 110.3Z" fill="#0d215a" stroke="#0d215a"></path><path d="M346.6 132.3L211.1 212.7L344.6 250.7Z" fill="#0d215a" stroke="#0d215a"></path><path d="M1027.9 340L1019.9 200.7L901.4 229.7Z" fill="#201e53" stroke="#201e53"></path><path d="M939.4 85.3L1006.9 0L902.4 0Z" fill="#321741" stroke="#321741"></path><path d="M200.1 141.3L211.1 212.7L346.6 132.3Z" fill="#201e53" stroke="#201e53"></path><path d="M211.1 212.7L231.1 340L344.6 250.7Z" fill="#321741" stroke="#321741"></path><path d="M322.6 0L244.1 0L346.6 132.3Z" fill="#2d1948" stroke="#2d1948"></path><path d="M1045.9 97.3L1006.9 0L939.4 85.3Z" fill="#301844" stroke="#301844"></path><path d="M244.1 0L200.1 141.3L346.6 132.3Z" fill="#2a1a4c" stroke="#2a1a4c"></path><path d="M902.4 340L1027.9 340L901.4 229.7Z" fill="#201e53" stroke="#201e53"></path><path d="M1135.5 241.7L1045.9 97.3L1019.9 200.7Z" fill="#301844" stroke="#301844"></path><path d="M1019.9 200.7L1045.9 97.3L939.4 85.3Z" fill="#301844" stroke="#301844"></path><path d="M126.5 0L130.5 127.3L200.1 141.3Z" fill="#361437" stroke="#361437"></path><path d="M200.1 141.3L130.5 127.3L211.1 212.7Z" fill="#301844" stroke="#301844"></path><path d="M211.1 212.7L95.5 229.7L231.1 340Z" fill="#2a1a4c" stroke="#2a1a4c"></path><path d="M1027.9 340L1135.5 241.7L1019.9 200.7Z" fill="#251c4f" stroke="#251c4f"></path><path d="M1045.9 97.3L1124.5 0L1006.9 0Z" fill="#2d1948" stroke="#2d1948"></path><path d="M130.5 127.3L95.5 229.7L211.1 212.7Z" fill="#35153a" stroke="#35153a"></path><path d="M244.1 0L126.5 0L200.1 141.3Z" fill="#361437" stroke="#361437"></path><path d="M0 116.3L0 240.7L95.5 229.7Z" fill="#2d1948" stroke="#2d1948"></path><path d="M1169.5 116.3L1124.5 0L1045.9 97.3Z" fill="#251c4f" stroke="#251c4f"></path><path d="M1027.9 340L1141.5 340L1135.5 241.7Z" fill="#201e53" stroke="#201e53"></path><path d="M1135.5 241.7L1169.5 116.3L1045.9 97.3Z" fill="#34163e" stroke="#34163e"></path><path d="M1260 205.7L1169.5 116.3L1135.5 241.7Z" fill="#201e53" stroke="#201e53"></path><path d="M95.5 229.7L86.5 340L231.1 340Z" fill="#2a1a4c" stroke="#2a1a4c"></path><path d="M0 116.3L95.5 229.7L130.5 127.3Z" fill="#34163e" stroke="#34163e"></path><path d="M95.5 229.7L0 240.7L86.5 340Z" fill="#181f56" stroke="#181f56"></path><path d="M126.5 0L0 116.3L130.5 127.3Z" fill="#361437" stroke="#361437"></path><path d="M1260 340L1260 205.7L1135.5 241.7Z" fill="#181f56" stroke="#181f56"></path><path d="M1169.5 116.3L1260 0L1124.5 0Z" fill="#321741" stroke="#321741"></path><path d="M0 240.7L0 340L86.5 340Z" fill="#321741" stroke="#321741"></path><path d="M1260 205.7L1260 88.3L1169.5 116.3Z" fill="#201e53" stroke="#201e53"></path><path d="M126.5 0L0 0L0 116.3Z" fill="#181f56" stroke="#181f56"></path><path d="M1141.5 340L1260 340L1135.5 241.7Z" fill="#34163e" stroke="#34163e"></path><path d="M1260 88.3L1260 0L1169.5 116.3Z" fill="#2d1948" stroke="#2d1948"></path></g></svg>